<?xml version="1.0" encoding="UTF-8" standalone="no"?>
<svg xmlns="http://www.w3.org/2000/svg" xmlns:xlink="http://www.w3.org/1999/xlink" width="700" height="550" version="1.0">
  <defs>
    <linearGradient id="a">
      <stop offset="0" stop-color="#fff"/>
      <stop offset="1" stop-color="#fff" stop-opacity="0"/>
    </linearGradient>
    <linearGradient xlink:href="#a" id="b" x1="166.66667" x2="385.92593" y1="-75.238083" y2="445.50266" gradientTransform="matrix(.762173 0 0 .963619 18.67308 36.25935)" gradientUnits="userSpaceOnUse"/>
  </defs>
  <path fill-opacity=".51602568" d="M671.227912 278.93496c-.091121-.38365-.527976-.27163-.663976-.33567-.271999-.12797-.436144-.20214-.633752-.28767-.395135-.17096-.861998-.3674-1.478701-.62341-1.233549-.51183-3.018706-1.23801-5.341665-2.18167-4.645761-1.88719-11.460941-4.64343-20.12907-8.1272-17.336261-6.96744-42.116648-16.89515-71.885428-28.79273-59.53692-23.79572-138.99543-55.47343-218.52251-87.14588-79.52787-31.67276-159.11674-63.330952-218.94539-87.074025-29.91431-11.871536-54.90453-21.768925-72.45895-28.697002-8.7776-3.464035-15.68865-6.191624-20.46125-8.055317-2.38592-.931829-4.22364-1.636921-5.52232-2.133675-.64934-.248409-1.1511-.445528-1.5693-.599353-.2095-.076917-.38751-.131909-.6343-.21578-.123-.041935-.26481-.085234-.54268-.167824-.27787-.082558 1.3322-.501324-3.41035-.503444-.68929-.000309-1.37767.053852-2.05247.167825-.28095.042731-.54645.108411-.81441.167826-5.56593 1.483921-7.86805 5.45664-7.18246 9.781425.07819.252313.14129.378372.18089.479482.08.202197.11481.30522.15113.383572.07188.156712.10303.240197.15036.335651 1.80642 3.401187 3.63336 6.795521 5.4628 10.188992 3.49803 6.484366 8.55219 15.801794 14.78702 27.282522C52.181 95.743417 69.35297 127.32608 88.26873 161.98913l67.1172 122.96327-67.1172 123.20289c-18.9205 34.72199-39.20922 72.10787-48.52706 89.35158-9.31783 17.24372-12.09484 22.45947-14.69696 27.33044-2.60211 4.87099-3.29321 6.20832-3.98355 7.52788-.69037 1.31955-.89085 1.69664-1.08615 2.08575-.19529.38911-.24653.53388-.33203.71917-.08548.18529-.1643.30555-.24197.50351-.07766.19794-.13002.35709-.21065.64726-1.07621 3.92543 6.17031 8.73187 13.36886 8.67868 7.41089-1.44912 14.40124-5.54868 27.704-10.78834 13.30279-5.23966 42.21612-16.65029 72.00556-28.43336 59.57884-23.56611 138.99948-55.05838 218.49274-86.59437 79.49328-31.536 159.06799-63.13023 218.8851-86.93013 29.90888-11.89992 54.887112-21.8416 72.45895-28.86493 8.78592-3.51143 15.540612-6.59035 20.491247-8.22308 9.644172-3.18067 10.452742-8.56059 8.631095-16.23039zM26.43312 39.169907c-.20074-.001554-.71086-.232639-.75489-.287679.17556.064995.86163.288506.75489.287679z"/>
  <path fill="#0c4" d="M29.67205 15c1.75223 0 659.98952 260.18681 659.327803 260.61787-2.220221 1.44629-659.492023 260.24274-659.735663 259.76657-.15912-.31101 31.76575-58.95015 70.94416-130.30918l71.23351-129.7437-71.22094-129.53285C61.04943 74.555639 29.00001 15.981041 29.00001 15.63293c0-.348107.30243-.632923.67204-.632923V15z"/>
  <path fill="url(#b)" d="M18.673084 663.35231c0-1.68834 251.513896-635.989831 251.930636-635.352176 1.39805 2.139492 251.56793 635.510616 251.10766 635.745286-.30065.15349-56.98516-30.61077-125.96556-68.36436l-125.41891-68.6433-125.21505 68.63112c-68.868332 37.74726-125.490445 68.63111-125.826948 68.63111-.336503 0-.61182-.29128-.61182-.64768h-.000008z" transform="rotate(90 350 355)"/>
</svg>